<svg xmlns="http://www.w3.org/2000/svg" viewBox="0 0 220 240" aria-label="Caddie mascot handing over a club">
        <line x1="150" y1="60" x2="212" y2="196" stroke="#0a0c0b" stroke-width="12" stroke-linecap="round"/>
        <line x1="150" y1="60" x2="212" y2="196" stroke="#c9d1cc" stroke-width="5" stroke-linecap="round"/>
        <path d="M204 190 q18 -6 24 12 q-14 8 -30 2z" fill="#4ade80" stroke="#0a0c0b" stroke-width="5" stroke-linejoin="round"/>
        <ellipse cx="80" cy="222" rx="22" ry="9" fill="#0a0c0b"/><ellipse cx="130" cy="222" rx="22" ry="9" fill="#0a0c0b"/>
        <line x1="112" y1="150" x2="160" y2="92" stroke="#0a0c0b" stroke-width="22" stroke-linecap="round"/>
        <line x1="112" y1="150" x2="160" y2="92" stroke="#f3e9d6" stroke-width="12" stroke-linecap="round"/>
        <line x1="60" y1="150" x2="40" y2="190" stroke="#0a0c0b" stroke-width="22" stroke-linecap="round"/>
        <line x1="60" y1="150" x2="40" y2="190" stroke="#f3e9d6" stroke-width="12" stroke-linecap="round"/>
        <circle cx="105" cy="140" r="72" fill="#f3e9d6" stroke="#0a0c0b" stroke-width="6"/>
        <path d="M40 112 A65 65 0 0 1 170 112 Z" fill="#4ade80" stroke="#0a0c0b" stroke-width="6" stroke-linejoin="round"/>
        <path d="M44 112 L178 112 Q188 118 174 126 L46 122 Z" fill="#4ade80" stroke="#0a0c0b" stroke-width="6" stroke-linejoin="round"/>
        <circle cx="105" cy="70" r="7" fill="#0a0c0b"/>
        <circle cx="82" cy="146" r="14" fill="#fff" stroke="#0a0c0b" stroke-width="5"/><circle cx="128" cy="146" r="14" fill="#fff" stroke="#0a0c0b" stroke-width="5"/>
        <circle cx="86" cy="147" r="6" fill="#0a0c0b"/><circle cx="132" cy="147" r="6" fill="#0a0c0b"/>
        <path d="M66 126 q14 -10 30 -2" stroke="#0a0c0b" stroke-width="5" fill="none" stroke-linecap="round"/>
        <path d="M92 174 q14 12 28 0" stroke="#0a0c0b" stroke-width="5" fill="none" stroke-linecap="round"/>
      </svg>
